#!OML:ASF H:\Punching\Project 1\Capture day 1\Session 1\female.ASF
:FULLY-SPECIFIED
:DEGREES
1046
root 2.0522 15.7561 6.86611 13.9859 -9.47886 -1.51703
lowerback -2.29048 0.759372 -0.858833
upperback -5.83059 0.989505 -0.253774
thorax -4.74181 0.521438 0.199921
lowerneck -10.777 3.53685 10.6981
upperneck 31.5871 4.84844 -7.30619
head 12.7248 2.50242 -4.02044
rclavicle 2.22452e-014 -1.15295e-014
rhumerus -21.8226 20.3882 -89.0522
rradius 78.4945
rwrist -44.2543
rhand -11.5714 -10.5852
rfingers 7.12502
rthumb 14.47 -40.0607
lclavicle 2.22452e-014 -1.15295e-014
lhumerus -49.4865 -27.7969 97.7481
lradius 110.013
lwrist 13.8504
lhand -19.5985 11.6352
lfingers 7.12502
lthumb 6.72737 41.5083
rfemur -28.6889 -5.19865 16.9697
rtibia 45.3571
rfoot -15.6827 -3.72181
rtoes -12.1453
lfemur -14.4296 -7.25347 -19.0031
ltibia 21.9069
lfoot -19.4991 20.0243
ltoes 2.96562
1047
root 2.03191 15.758 6.8752 13.8793 -9.73082 -1.32053
lowerback -2.15779 0.774626 -1.1049
upperback -5.83363 1.00271 -0.345195
thorax -4.82364 0.536893 0.240742
lowerneck -10.6968 3.48147 10.7042
upperneck 31.7548 4.74867 -7.21355
head 12.7644 2.47274 -4.00565
rclavicle -7.97623e-015 -1.15295e-014
rhumerus -20.0214 20.7388 -89.0941
rradius 79.806
rwrist -44.6546
rhand -11.6063 -10.7722
rfingers 7.12502
rthumb 14.4364 -40.2501
lclavicle -7.97623e-015 -1.15295e-014
lhumerus -48.4494 -28.6605 97.6281
lradius 111.18
lwrist 13.1801
lhand -20.0364 11.3587
lfingers 7.12502
lthumb 6.30471 41.2449
rfemur -29.6992 -5.44756 16.5312
rtibia 46.8469
rfoot -15.4015 -2.56074
rtoes -12.3615
lfemur -13.9495 -7.17261 -19.1949
ltibia 21.3096
lfoot -19.3015 20.1038
ltoes 2.91633
1048
root 2.00949 15.7605 6.88669 13.7856 -9.92997 -1.12663
lowerback -2.04389 0.792017 -1.31645
upperback -5.84497 1.0181 -0.445467
thorax -4.90295 0.551819 0.253142
lowerneck -10.6266 3.41003 10.6974
upperneck 31.9351 4.62307 -7.10612
head 12.808 2.43209 -3.98669
rclavicle 4.72735e-015 -1.03368e-014
rhumerus -18.227 21.1763 -89.167
rradius 81.0402
rwrist -44.756
rhand -11.6026 -10.9444
rfingers 7.12502
rthumb 14.44 -40.422
lclavicle 4.72735e-015 -1.03368e-014
lhumerus -47.3586 -29.6048 97.4873
lradius 112.224
lwrist 12.4585
lhand -20.4373 11.0508
lfingers 7.12502
lthumb 5.91763 40.9482
rfemur -30.644 -5.68425 16.0861
rtibia 48.1006
rfoot -15.2238 -1.58631
rtoes -12.4981
lfemur -13.4626 -7.11835 -19.3655
ltibia 20.675
lfoot -19.081 20.1587
ltoes 2.83861
1049
root 1.9851 15.7635 6.90063 13.7088 -10.073 -0.936581
lowerback -1.95094 0.807675 -1.49571
upperback -5.86265 1.03101 -0.549137
thorax -4.97647 0.564063 0.244163
lowerneck -10.5708 3.32616 10.671
upperneck 32.1242 4.47756 -6.98321
head 12.8553 2.38227 -3.96108
rclavicle 5.73991e-015 1.35174e-014
rhumerus -16.4351 21.722 -89.247
rradius 82.1828
rwrist -44.5884
rhand -11.5684 -11.0743
rfingers 7.12502
rthumb 14.4729 -40.5496
lclavicle 5.73991e-015 1.35174e-014
lhumerus -46.23 -30.5691 97.3257
lradius 113.172
lwrist 11.7222
lhand -20.7868 10.721
lfingers 7.12502
lthumb 5.58017 40.6276
rfemur -31.5176 -5.911 15.6336
rtibia 49.0844
rfoot -15.1029 -0.880036
rtoes -12.5333
lfemur -12.9715 -7.09709 -19.5131
ltibia 19.9998
lfoot -18.8342 20.1892
ltoes 2.74286
1050
root 1.95901 15.7674 6.91708 13.6508 -10.1587 -0.761369
lowerback -1.87564 0.821516 -1.63178
upperback -5.8875 1.04183 -0.650976
thorax -5.04671 0.573432 0.21308
lowerneck -10.5285 3.23024 10.6244
upperneck 32.3186 4.31329 -6.84657
head 12.9053 2.32351 -3.92907
rclavicle -1.90523e-014 7.95139e-015
rhumerus -14.6595 22.3988 -89.3094
rradius 83.2534
rwrist -44.2423
rhand -11.5382 -11.1173
rfingers 7.12502
rthumb 14.502 -40.5905
lclavicle -1.90523e-014 7.95139e-015
lhumerus -45.0747 -31.5443 97.1495
lradius 114.027
lwrist 11.0234
lhand -21.0866 10.3963
lfingers 7.12502
lthumb 5.29078 40.3103
rfemur -32.3104 -6.12059 15.1799
rtibia 49.7702
rfoot -14.9595 -0.496421
rtoes -12.4289
lfemur -12.4776 -7.11103 -19.6274
ltibia 19.2873
lfoot -18.5622 20.2006
ltoes 2.62513
1051
root 1.93132 15.7722 6.93573 13.6163 -10.1925 -0.6039
lowerback -1.81958 0.831149 -1.72838
upperback -5.91735 1.04784 -0.745169
thorax -5.11057 0.578822 0.168152
lowerneck -10.4989 3.12776 10.558
upperneck 32.5085 4.13986 -6.70257
head 12.9548 2.25921 -3.89158
rclavicle 2.74882e-014 8.74653e-015
rhumerus -12.9006 23.2127 -89.3349
rradius 84.2603
rwrist -43.7895
rhand -11.5216 -11.0855
rfingers 7.12502
rthumb 14.518 -40.5575
lclavicle 2.74882e-014 8.74653e-015
lhumerus -43.9125 -32.4919 96.9648
lradius 114.802
lwrist 10.3767
lhand -21.3293 10.0819
lfingers 7.12502
lthumb 5.0564 40.0016
rfemur -33.0241 -6.29723 14.7217
rtibia 50.1408
rfoot -14.7255 -0.44347
rtoes -12.1517
lfemur -11.9888 -7.16135 -19.7058
ltibia 18.5425
lfoot -18.2698 20.2015
ltoes 2.4997
1052
root 1.90202 15.778 6.95625 13.606 -10.1814 -0.479169
lowerback -1.78438 0.83642 -1.7764
upperback -5.94586 1.04957 -0.825428
thorax -5.1603 0.58013 0.110918
lowerneck -10.4788 3.02232 10.4746
upperneck 32.6803 3.96321 -6.55554
head 12.9985 2.19158 -3.84951
rclavicle 8.5291e-015 2.66371e-014
rhumerus -11.1624 24.1556 -89.3114
rradius 85.2169
rwrist -43.2859
rhand -11.5027 -10.986
rfingers 7.12502
rthumb 14.5362 -40.4567
lclavicle 8.5291e-015 2.66371e-014
lhumerus -42.759 -33.3835 96.7743
lradius 115.515
lwrist 9.79059
lhand -21.5057 9.78827
lfingers 7.12502
lthumb 4.88607 39.7119
rfemur -33.651 -6.41326 14.2665
rtibia 50.1862
rfoot -14.3744 -0.696542
rtoes -11.6429
lfemur -11.5083 -7.24628 -19.734
ltibia 17.7768
lfoot -17.9635 20.206
ltoes 2.37166
1053
root 1.87115 15.7845 6.97832 13.6182 -10.1319 -0.386996
lowerback -1.76203 0.835314 -1.7827
upperback -5.97079 1.04436 -0.888692
thorax -5.19823 0.576408 0.0484055
lowerneck -10.4746 2.91908 10.3824
upperneck 32.8281 3.79133 -6.41524
head 13.0363 2.12372 -3.80686
rclavicle -3.47563e-014 7.55382e-015
rhumerus -9.44246 25.221 -89.2292
rradius 86.1369
rwrist -42.7791
rhand -11.5057 -10.8589
rfingers 7.12502
rthumb 14.5333 -40.3299
lclavicle -3.47563e-014 7.55382e-015
lhumerus -41.634 -34.208 96.5866
lradius 116.177
lwrist 9.26003
lhand -21.623 9.51513
lfingers 7.12502
lthumb 4.77276 39.4414
rfemur -34.1858 -6.45343 13.8074
rtibia 49.9086
rfoot -13.9061 -1.19121
rtoes -10.9186
lfemur -11.0416 -7.3593 -19.7139
ltibia 17.0034
lfoot -17.6504 20.2183
ltoes 2.23988
1054
root 1.83855 15.7913 7.00134 13.6536 -10.0538 -0.329922
lowerback -1.74886 0.831744 -1.7475
upperback -5.99379 1.03736 -0.936594
thorax -5.22827 0.570187 -0.02117
lowerneck -10.4754 2.81658 10.2861
upperneck 32.9441 3.62262 -6.28352
head 13.0625 2.05528 -3.76527
rclavicle 3.26131e-015 7.15625e-015
rhumerus -7.75224 26.3864 -89.0831
rradius 87.0386
rwrist -42.2926
rhand -11.5113 -10.7481
rfingers 7.12502
rthumb 14.5279 -40.2194
lclavicle 3.26131e-015 7.15625e-015
lhumerus -40.5655 -34.9698 96.416
lradius 116.803
lwrist 8.78186
lhand -21.693 9.25585
lfingers 7.12502
lthumb 4.70517 39.1836
rfemur -34.6296 -6.39683 13.342
rtibia 49.3197
rfoot -13.3776 -1.88093
rtoes -10.0514
lfemur -10.5964 -7.4973 -19.6434
ltibia 16.2359
lfoot -17.339 20.2499
ltoes 2.10572
1055
root 1.8042 15.7983 7.02517 13.7083 -9.95073 -0.305023
lowerback -1.74217 0.824538 -1.68307
upperback -6.01154 1.02708 -0.964242
thorax -5.24878 0.561415 -0.0858313
lowerneck -10.4807 2.71671 10.1877
upperneck 33.0225 3.46232 -6.16898
head 13.0752 1.98759 -3.72761
rclavicle 6.23066e-015 -1.55052e-014
rhumerus -6.08105 27.6475 -88.8567
rradius 87.9257
rwrist -41.848
rhand -11.5176 -10.6355
rfingers 7.12502
rthumb 14.5218 -40.1073
lclavicle 6.23066e-015 -1.55052e-014
lhumerus -39.5562 -35.6864 96.2723
lradius 117.398
lwrist 8.3581
lhand -21.7487 9.01615
lfingers 7.12502
lthumb 4.6514 38.9451
rfemur -34.9798 -6.24224 12.8643
rtibia 48.4404
rfoot -12.8345 -2.73995
rtoes -9.11706
lfemur -10.1743 -7.65695 -19.5268
ltibia 15.4854
lfoot -17.0351 20.3015
ltoes 1.97368
1056
root 1.76797 15.805 7.04967 13.7775 -9.82998 -0.30164
lowerback -1.74795 0.819082 -1.59135
upperback -6.0156 1.02046 -0.984475
thorax -5.24736 0.553238 -0.157768
lowerneck -10.4977 2.61731 10.0919
upperneck 33.0576 3.30371 -6.06637
head 13.0726 1.9187 -3.69337
rclavicle 2.48481e-016 9.14409e-015
rhumerus -4.40713 28.9874 -88.5313
rradius 88.8083
rwrist -41.456
rhand -11.5508 -10.5307
rfingers 7.12502
rthumb 14.4899 -40.0047
lclavicle 2.48481e-016 9.14409e-015
lhumerus -38.5954 -36.3851 96.1415
lradius 117.971
lwrist 7.99316
lhand -21.8062 8.79338
lfingers 7.12502
lthumb 4.59589 38.7235
rfemur -35.2401 -5.99248 12.3621
rtibia 47.3012
rfoot -12.2952 -3.73196
rtoes -8.17893
lfemur -9.77446 -7.83222 -19.3773
ltibia 14.7579
lfoot -16.7446 20.3729
ltoes 1.83347
1057
root 1.72965 15.8113 7.07477 13.8595 -9.69506 -0.317522
lowerback -1.73766 0.819713 -1.48071
upperback -6.02495 1.02223 -0.996042
thorax -5.26057 0.548654 -0.231909
lowerneck -10.5138 2.51198 9.99154
upperneck 33.0621 3.14001 -5.97251
head 13.0565 1.84552 -3.66147
rclavicle -9.38636e-015 3.18055e-015
rhumerus -2.77294 30.3854 -88.1084
rradius 89.6949
rwrist -41.096
rhand -11.6024 -10.4207
rfingers 7.12502
rthumb 14.4401 -39.8983
lclavicle -9.38636e-015 3.18055e-015
lhumerus -37.7356 -37.0811 96.0679
lradius 118.525
lwrist 7.67074
lhand -21.9038 8.5889
lfingers 7.12502
lthumb 4.50164 38.5211
rfemur -35.4197 -5.65009 11.8342
rtibia 45.9382
rfoot -11.7681 -4.815
rtoes -7.25669
lfemur -9.39284 -8.02029 -19.1972
ltibia 14.0501
lfoot -16.4666 20.4609
ltoes 1.68541
1058
root 1.68908 15.817 7.10056 13.9519 -9.54782 -0.34429
lowerback -1.72413 0.826423 -1.36367
upperback -6.03281 1.03262 -0.999764
thorax -5.27412 0.548272 -0.301806
lowerneck -10.5282 2.3994 9.88342
upperneck 33.0316 2.96958 -5.88562
head 13.0245 1.76705 -3.63069
rclavicle 1.27657e-014 -1.78906e-014
rhumerus -1.159 31.842 -87.561
rradius 90.5861
rwrist -40.7517
rhand -11.7108 -10.2925
rfingers 7.12502
rthumb 14.3357 -39.7776
lclavicle 1.27657e-014 -1.78906e-014
lhumerus -36.9658 -37.7766 96.0492
lradius 119.069
lwrist 7.4011
lhand -22.0454 8.40132
lfingers 7.12502
lthumb 4.36488 38.3363
rfemur -35.53 -5.22702 11.2753
rtibia 44.394
rfoot -11.2493 -5.95175
rtoes -6.36309
lfemur -9.02168 -8.21917 -18.9952
ltibia 13.3496
lfoot -16.1954 20.5615
ltoes 1.53474
